<?xml version="1.0" encoding="UTF-8"?>
<svg id="_レイヤー_2" data-name="レイヤー 2" xmlns="http://www.w3.org/2000/svg" viewBox="0 0 54.78 58.24" xmlns:c2pa="http://c2pa.org/manifest"><metadata><c2pa:manifest>AABRWGp1bWIAAAAeanVtZGMycGEAEQAQgAAAqgA4m3EDYzJwYQAAABnHanVtYgAAAEdqdW1kYzJtYQARABCAAACqADibcQN1cm46YzJwYTo1MTM4YTE0ZC1lMmIyLWEyMTMtMTUxYS00OGE2Y2VkMmRiMzAAAAATAGp1bWIAAAAoanVtZGMyY3MAEQAQgAAAqgA4m3EDYzJwYS5zaWduYXR1cmUAAAAS0GNib3LShFkGKqIBJhghglkDPjCCAzowggLAoAMCAQICFACnM2wMN+ADb/eB7Bj02g/DtN1iMAoGCCqGSM49BAMDMFExCzAJBgNVBAYTAlVTMRMwEQYDVQQKDApHb29nbGUgTExDMS0wKwYDVQQDDCRHb29nbGUgQzJQQSBNZWRpYSBTZXJ2aWNlcyAxUCBJQ0EgRzMwHhcNMjYwMjI1MTUxNTU0WhcNMjcwMjIwMTUxNTUzWjBrMQswCQYDVQQGEwJVUzETMBEGA1UEChMKR29vZ2xlIExMQzEcMBoGA1UECxMTR29vZ2xlIFN5c3RlbSA2MDAzMjEpMCcGA1UEAxMgR29vZ2xlIE1lZGlhIFByb2Nlc3NpbmcgU2VydmljZXMwWTATBgcqhkjOPQIBBggqhkjOPQMBBwNCAATuKwPFjizRNTLzUihbaJAr+XcQ65GEjEF3I9oMbuxIDXJMTqslQyuuuevF47DJVtixcWq8x8aVg9uo0EPnmrCko4IBWjCCAVYwDgYDVR0PAQH/BAQDAgbAMB8GA1UdJQQYMBYGCCsGAQUFBwMEBgorBgEEAYPoXgIBMAwGA1UdEwEB/wQCMAAwHQYDVR0OBBYEFNj3rZAGCFUC+HFkOGHbbggeXSobMB8GA1UdIwQYMBaAFNp74b20LIqF4BDWa5rHSvH63/Y3MGwGCCsGAQUFBwEBBGAwXjAmBggrBgEFBQcwAYYaaHR0cDovL2MycGEtb2NzcC5wa2kuZ29vZy8wNAYIKwYBBQUHMAKGKGh0dHA6Ly9wa2kuZ29vZy9jMnBhL21lZGlhLTFwLWljYS1nMy5jcnQwFwYDVR0gBBAwDjAMBgorBgEEAYPoXgEBMBkGCSsGAQQBg+heAwQMBgorBgEEAYPoXgMKMDMGCSsGAQQBg+heBAQmDCQwMTljMzRkMy03MzNmLTdhNDctYjkxNy01MGRkMzhmNDFlY2UwCgYIKoZIzj0EAwMDaAAwZQIxAIA3rs6ptfbGUpQv/bE/vboyGRVLK/qLoyplJBQm4qO/ekr3RlvdEWOP339bA8r5hQIwJ0c8y/xYFldNkIERVDogLQ7jNE3kjI/RtL4/uquRcQWDLmcLV9+9KtVUnossRvz6WQLgMIIC3DCCAmOgAwIBAgIUQfqlIUd2IVjaf5ss/439Fgke7j4wCgYIKoZIzj0EAwMwQzELMAkGA1UEBhMCVVMxEzARBgNVBAoMCkdvb2dsZSBMTEMxHzAdBgNVBAMMFkdvb2dsZSBDMlBBIFJvb3QgQ0EgRzMwHhcNMjUwNTA4MjIzNjI2WhcNMzAwNTA4MjIzNjI2WjBRMQswCQYDVQQGEwJVUzETMBEGA1UECgwKR29vZ2xlIExMQzEtMCsGA1UEAwwkR29vZ2xlIEMyUEEgTWVkaWEgU2VydmljZXMgMVAgSUNBIEczMHYwEAYHKoZIzj0CAQYFK4EEACIDYgAEuCPlUxSiltqnB2lx2ES7FK+TVZWmAxRzzDjTzKZ8umoqyvCqSLOkZBrOieaLqrp+rnzt0EADWWH3X62NqzEXRewW6rb/lS7VXkVCM02gC0ZgJW7+PCsZgLoUBUQ+nkN5o4IBCDCCAQQwFwYDVR0gBBAwDjAMBgorBgEEAYPoXgEBMA4GA1UdDwEB/wQEAwIBBjAfBgNVHSUEGDAWBggrBgEFBQcDBAYKKwYBBAGD6F4CATASBgNVHRMBAf8ECDAGAQH/AgEAMGQGCCsGAQUFBwEBBFgwVjAsBggrBgEFBQcwAoYgaHR0cDovL3BraS5nb29nL2MycGEvcm9vdC1nMy5jcnQwJgYIKwYBBQUHMAGGGmh0dHA6Ly9jMnBhLW9jc3AucGtpLmdvb2cvMB8GA1UdIwQYMBaAFJxc2IlTQ+da1YHbA94ZfwQqKi2qMB0GA1UdDgQWBBTae+G9tCyKheAQ1muax0rx+t/2NzAKBggqhkjOPQQDAwNnADBkAjACxtEE3NW13bwN1u/51ericNF6rkEhYVESDO6Jqb5cX37Hwg0X9S2rH+vXaoFZIHsCMC03wCKKomDHgqV47UtyyHpZlo5IZACW72Xdc4gipdWMEmhvPk88dvxbYtn+LVd9zKRnc2lnVHN0MqFpdHN0VG9rZW5zgaFjdmFsWQfeMIIH2gYJKoZIhvcNAQcCoIIHyzCCB8cCAQMxDTALBglghkgBZQMEAgEwgZAGCyqGSIb3DQEJEAEEoIGABH4wfAIBAQYKKwYBBAHWeQIKATAxMA0GCWCGSAFlAwQCAQUABCCiVYD//7/qXSELeXEtv7bPat/qtDwz8P+ZfsdcqZOiKAIVAI7pEwVAE362ruphsZh2WnXwY5+nGA8yMDI2MDkxMTEwMDk0NVowBgIBAYABCgIIXwRieDRmAJGgggWfMIICyDCCAk+gAwIBAgIUAKPmzpsOLWwEQ8txkCxtj4kd0XwwCgYIKoZIzj0EAwMwUjELMAkGA1UEBhMCVVMxEzARBgNVBAoMCkdvb2dsZSBMTEMxLjAsBgNVBAMMJUdvb2dsZSBDMlBBIENvcmUgVGltZS1TdGFtcGluZyBJQ0EgRzMwHhcNMjUwOTA4MTM0ODUzWhcNMzEwOTA5MDE0ODUyWjBTMQswCQYDVQQGEwJVUzETMBEGA1UEChMKR29vZ2xlIExMQzEvMC0GA1UEAxMmR29vZ2xlIENvcmUgVGltZSBTdGFtcGluZyBBdXRob3JpdHkgVDgwWTATBgcqhkjOPQIBBggqhkjOPQMBBwNCAASFX4mdJAheJrab1x2l9vhyFSV9g2BgjjK5WkOJaWHuUDQ/lUMmOsFRsimD+AYy6NwQv22ND1nAy6oTvlQybzWho4IBADCB/TAOBgNVHQ8BAf8EBAMCBsAwDAYDVR0TAQH/BAIwADAdBgNVHQ4EFgQUJ6wXXk40NEjmk0QIo79sKLTXm7gwHwYDVR0jBBgwFoAU3lWXjGB0OwPiarREBmWXYcrl+I4wbAYIKwYBBQUHAQEEYDBeMCYGCCsGAQUFBzABhhpodHRwOi8vYzJwYS1vY3NwLnBraS5nb29nLzA0BggrBgEFBQcwAoYoaHR0cDovL3BraS5nb29nL2MycGEvY29yZS10c2EtaWNhLWczLmNydDAXBgNVHSAEEDAOMAwGCisGAQQBg+heAQEwFgYDVR0lAQH/BAwwCgYIKwYBBQUHAwgwCgYIKoZIzj0EAwMDZwAwZAIwPCdVT3pQ0xEeuKnbnYOJ2hjGUcHgq+xNtt2eMq8eDud85cxKhjJDX+YBH/3PwWYBAjBccukG/sFZaZLuzO0uMvlNcswt3OAIlz6w+vsQzWwkzKcgGYBOER1caTrS/bKgkzIwggLPMIICVqADAgECAhRFAINuchMCxWSknmQzdvqPCbdk9DAKBggqhkjOPQQDAzBDMQswCQYDVQQGEwJVUzETMBEGA1UECgwKR29vZ2xlIExMQzEfMB0GA1UEAwwWR29vZ2xlIEMyUEEgUm9vdCBDQSBHMzAeFw0yNTA1MDgyMjM2MjZaFw00MDA1MDgyMjM2MjZaMFIxCzAJBgNVBAYTAlVTMRMwEQYDVQQKDApHb29nbGUgTExDMS4wLAYDVQQDDCVHb29nbGUgQzJQQSBDb3JlIFRpbWUtU3RhbXBpbmcgSUNBIEczMHYwEAYHKoZIzj0CAQYFK4EEACIDYgAEo3338b0IKh9FWSXgUvmpIN/+2y6PRSHYTwrVzQNx3WcqLFluwJwkMnIiebkCkV+5pspHn6fFNHMTfl7FJUTpMSKONNW4Fv4awasz6sYhLCNP/wHk4MF/8DhrxXKtJUsKo4H7MIH4MBcGA1UdIAQQMA4wDAYKKwYBBAGD6F4BATAOBgNVHQ8BAf8EBAMCAQYwEwYDVR0lBAwwCgYIKwYBBQUHAwgwEgYDVR0TAQH/BAgwBgEB/wIBADBkBggrBgEFBQcBAQRYMFYwLAYIKwYBBQUHMAKGIGh0dHA6Ly9wa2kuZ29vZy9jMnBhL3Jvb3QtZzMuY3J0MCYGCCsGAQUFBzABhhpodHRwOi8vYzJwYS1vY3NwLnBraS5nb29nLzAfBgNVHSMEGDAWgBScXNiJU0PnWtWB2wPeGX8EKiotqjAdBgNVHQ4EFgQU3lWXjGB0OwPiarREBmWXYcrl+I4wCgYIKoZIzj0EAwMDZwAwZAIwQcYGjR1KfAGV1uVNgXR8YF3McEJbShGEY/+lh9yUJNiBzKj5R1Hmdi6IdmkoWFBxAjBwC6Yt0x6bxekQmwAR51P07SWj6Sxq5/Bsn3cFWHkcbeHfuvGKPycTTri6GlI+Iy0xggF7MIIBdwIBATBqMFIxCzAJBgNVBAYTAlVTMRMwEQYDVQQKDApHb29nbGUgTExDMS4wLAYDVQQDDCVHb29nbGUgQzJQQSBDb3JlIFRpbWUtU3RhbXBpbmcgSUNBIEczAhQAo+bOmw4tbARDy3GQLG2PiR3RfDALBglghkgBZQMEAgGggaQwGgYJKoZIhvcNAQkDMQ0GCyqGSIb3DQEJEAEEMBwGCSqGSIb3DQEJBTEPFw0yNjA5MTExMDA5NDRaMC8GCSqGSIb3DQEJBDEiBCATnzJUF7Trezx+PqfVTUcSnmc2dEzy+ssNh2TJg2MdyjA3BgsqhkiG9w0BCRACLzEoMCYwJDAiBCCE9Z8OlS6TnTcPjfwZORTT13ZiXshY9XXlr+Wm7IfQaTAKBggqhkjOPQQDAgRGMEQCIHN37lEVgmAFVKYpo36jmpZb91+XHe9vkKBrikfeFRE+AiBr+5/jqNwj8WnfB7VKFsJRhI2V6R/EvrnJeXBB/Xq2umVyVmFsc6Fob2NzcFZhbHOCWQPzMIID7woBAKCCA+gwggPkBgkrBgEFBQcwAQEEggPVMIID0TCB7KFCMEAxCzAJBgNVBAYTAlVTMRMwEQYDVQQKEwpHb29nbGUgTExDMRwwGgYDVQQDExNDMlBBIE9DU1AgUmVzcG9uZGVyGA8yMDI2MDkxMDE1MzQwMFowgZQwgZEwaTANBglghkgBZQMEAgEFAAQgssyQyamfMvBXXlCCvNODuNEJ0MZY4HuaHcboqhUW7SoEIJwa/V8+flyCR5a1dPJTP+OCaW+uDbdG9nAQsZU5sds9AhQApzNsDDfgA2/3gewY9NoPw7TdYoAAGA8yMDI2MDkxMDE1MzQzOFqgERgPMjAyNjA5MTcxNTM0MzhaMAoGCCqGSM49BAMCA0gAMEUCIQDjlU36jWQ8sXFORXhZ+2LlojSelI7gIpteHgv52C0wYAIgFxJm9gaL2KIIsUV/EOeUQhmSg7Gp9RaEO3W6dmlIhSigggKIMIIChDCCAoAwggIHoAMCAQICFADjf2OBG36bitg0oPdUpqR1ciKYMAoGCCqGSM49BAMDMFExCzAJBgNVBAYTAlVTMRMwEQYDVQQKDApHb29nbGUgTExDMS0wKwYDVQQDDCRHb29nbGUgQzJQQSBNZWRpYSBTZXJ2aWNlcyAxUCBJQ0EgRzMwHhcNMjYwOTA5MTU0MDU4WhcNMjYxMDA5MTU0MDU3WjBAMQswCQYDVQQGEwJVUzETMBEGA1UEChMKR29vZ2xlIExMQzEcMBoGA1UEAxMTQzJQQSBPQ1NQIFJlc3BvbmRlcjBZMBMGByqGSM49AgEGCCqGSM49AwEHA0IABH90QOBu4IMBOmaZFXtjf5uyXij3N5KPFDPfBSsBycvmYOmjatPb16L6i/kdcmyjffvUxFwbcAoDkzxeR2okXCWjgc0wgcowDgYDVR0PAQH/BAQDAgeAMBMGA1UdJQQMMAoGCCsGAQUFBwMJMAwGA1UdEwEB/wQCMAAwHQYDVR0OBBYEFKXKpnbxV53SfuFU9skgn4CxxLDBMB8GA1UdIwQYMBaAFNp74b20LIqF4BDWa5rHSvH63/Y3MEQGCCsGAQUFBwEBBDgwNjA0BggrBgEFBQcwAoYoaHR0cDovL3BraS5nb29nL2MycGEvbWVkaWEtMXAtaWNhLWczLmNydDAPBgkrBgEFBQcwAQUEAgUAMAoGCCqGSM49BAMDA2cAMGQCMBHloIKjOXrgoYs6OONy6xfTsf92LPqmBJEhxmjZvJmDjxpUj6uNmPr5kGOxSUkE3QIwPA+9Ms0EdvzOXXmQTOfnjwGh6pKl9oW3qE215Zh+GrYERJJRo5i4YApwzCFO+EInQGNwYWRYRgAAAAAAAAAAAAAAAAAAAAAAAAAAAAAAAAAAAAAAAAAAAAAAAAAAAAAAAAAAAAAAAAAAAAAAAAAAAAAAAAAAAAAAAAAAAABkcGFkMkEA9lhAVKDsB9i0QJFqVCrltq8d2chpx0Ob+ltJ8dmSH3UNDyVs9hbrOGS8RQjveFNq/nk153YIQTAgLaHVLncakQlF7wAAAnBqdW1iAAAAJ2p1bWRjMmNsABEAEIAAAKoAOJtxA2MycGEuY2xhaW0udjIAAAACQWNib3Klamluc3RhbmNlSUR4JGQ2M2ZiMWVhLWVlN2MtMDJiOS04ODYzLTRlZDdmZmJjYWJmOHRjbGFpbV9nZW5lcmF0b3JfaW5mb6JkbmFtZXgiR29vZ2xlIEMyUEEgQ29yZSBHZW5lcmF0b3IgTGlicmFyeWd2ZXJzaW9uczk3NzI0NTY4Njo5NzcyNDU2ODZyY3JlYXRlZF9hc3NlcnRpb25zhKJjdXJseC1zZWxmI2p1bWJmPWMycGEuYXNzZXJ0aW9ucy9jMnBhLmluZ3JlZGllbnQudjNkaGFzaFggQ89BBSZ+7rzB0gQct1E1zC8AYWx4J+2IJ7n7zntYOZaiY3VybHgwc2VsZiNqdW1iZj1jMnBhLmFzc2VydGlvbnMvYzJwYS5pbmdyZWRpZW50LnYzX18xZGhhc2hYIBVyU9Zm+Ya+XXIkkkUgpWMxOV0E+KN+UyCd/DYlIaenomN1cmx4KnNlbGYjanVtYmY9YzJwYS5hc3NlcnRpb25zL2MycGEuYWN0aW9ucy52MmRoYXNoWCB5q0Xq9rF01iglhf65S6khCMK+kydWOnLL1OvmXsVMqqJjdXJseClzZWxmI2p1bWJmPWMycGEuYXNzZXJ0aW9ucy9jMnBhLmhhc2guZGF0YWRoYXNoWCD61mZO+wCTsiKpXlDR+sx+pj+Y+jvc3UVzaxgB02x7YGlzaWduYXR1cmV4GXNlbGYjanVtYmY9YzJwYS5zaWduYXR1cmVjYWxnZnNoYTI1NgAABAhqdW1iAAAAKWp1bWRjMmFzABEAEIAAAKoAOJtxA2MycGEuYXNzZXJ0aW9ucwAAAACcanVtYgAAAChqdW1kY2JvcgARABCAAACqADibcQNjMnBhLmhhc2guZGF0YQAAAABsY2JvcqRqZXhjbHVzaW9uc4GiZXN0YXJ0FGZsZW5ndGgZGfljYWxnZnNoYTI1NmRoYXNoWCCl6+1FkIDxrXEUmpnHiZcOjk6TYqRyBmMLWZ7iAMMZnGNwYWROAAAAAAAAAAAAAAAAAAAAAAJWanVtYgAAAClqdW1kY2JvcgARABCAAACqADibcQNjMnBhLmFjdGlvbnMudjIAAAACJWNib3KhZ2FjdGlvbnOCpGZhY3Rpb25sYzJwYS5jcmVhdGVka2Rlc2NyaXB0aW9ueCBDcmVhdGVkIGJ5IEdvb2dsZSBHZW5lcmF0aXZlIEFJLnFkaWdpdGFsU291cmNlVHlwZXhGaHR0cDovL2N2LmlwdGMub3JnL25ld3Njb2Rlcy9kaWdpdGFsc291cmNldHlwZS90cmFpbmVkQWxnb3JpdGhtaWNNZWRpYWpwYXJhbWV0ZXJzoWtpbmdyZWRpZW50c4KiY3VybHgtc2VsZiNqdW1iZj1jMnBhLmFzc2VydGlvbnMvYzJwYS5pbmdyZWRpZW50LnYzZGhhc2hYIEPPQQUmfu68wdIEHLdRNcwvAGFseCftiCe5+857WDmWomN1cmx4MHNlbGYjanVtYmY9YzJwYS5hc3NlcnRpb25zL2MycGEuaW5ncmVkaWVudC52M19fMWRoYXNoWCAVclPWZvmGvl1yJJJFIKVjMTldBPijflMgnfw2JSGnp6NmYWN0aW9ua2MycGEuZWRpdGVka2Rlc2NyaXB0aW9ueChBcHBsaWVkIGltcGVyY2VwdGlibGUgU3ludGhJRCB3YXRlcm1hcmsucWRpZ2l0YWxTb3VyY2VUeXBleEZodHRwOi8vY3YuaXB0Yy5vcmcvbmV3c2NvZGVzL2RpZ2l0YWxzb3VyY2V0eXBlL3RyYWluZWRBbGdvcml0aG1pY01lZGlhAAAAdGp1bWIAAAAvanVtZGNib3IAEQAQgAAAqgA4m3EDYzJwYS5pbmdyZWRpZW50LnYzX18xAAAAAD1jYm9yomxyZWxhdGlvbnNoaXBnaW5wdXRUb2tkZXNjcmlwdGlvbnJJbnB1dCBpbmdyZWRpZW50IDEAAABxanVtYgAAACxqdW1kY2JvcgARABCAAACqADibcQNjMnBhLmluZ3JlZGllbnQudjMAAAAAPWNib3KibHJlbGF0aW9uc2hpcGdpbnB1dFRva2Rlc2NyaXB0aW9ucklucHV0IGluZ3JlZGllbnQgMAAAN2tqdW1iAAAAR2p1bWRjMm1hABEAEIAAAKoAOJtxA3VybjpjMnBhOmRhZWZjM2JiLWU3NmUtNDE5My04MzE2LTU4ZmY2N2I3NGJjYQAAAAV+anVtYgAAAClqdW1kYzJhcwARABCAAACqADibcQNjMnBhLmFzc2VydGlvbnMAAAACOmp1bWIAAABEanVtZGNib3IAEQAQgAAAqgA4m3ETYzJwYS5pbmdyZWRpZW50LnYzAAAAABhjMnNouQS62QjEBLX/RBvX+96XYQAAAe5jYm9yp2xyZWxhdGlvbnNoaXBocGFyZW50T2ZoZGM6dGl0bGV3QUkgR2VuZXJhdGVkIEluZ3JlZGllbnRpZGM6Zm9ybWF0amltYWdlL2pwZWdxdmFsaWRhdGlvblJlc3VsdHOhbmFjdGl2ZU1hbmlmZXN0o2dzdWNjZXNzgG1pbmZvcm1hdGlvbmFsgGdmYWlsdXJlgGppbnN0YW5jZUlEeC11cm46dXVpZDo1Njk2ZDBlOS1jOTlmLTQyZTUtYjAyMC01NTRiMjgzMzZlNGFuYWN0aXZlTWFuaWZlc3SjY3VybHg+c2VsZiNqdW1iZj0vYzJwYS91cm46YzJwYTo1MTM4YTE0ZC1lMmIyLWEyMTMtMTUxYS00OGE2Y2VkMmRiMzBjYWxnZnNoYTI1NmRoYXNoWCDan8oglGAB2Be4lSoPISNB4EPr6fDS2QZ6MhWZWgIQT25jbGFpbVNpZ25hdHVyZaNjdXJseE1zZWxmI2p1bWJmPS9jMnBhL3VybjpjMnBhOjUxMzhhMTRkLWUyYjItYTIxMy0xNTFhLTQ4YTZjZWQyZGIzMC9jMnBhLnNpZ25hdHVyZWNhbGdmc2hhMjU2ZGhhc2hYIJGUA3/MtdP4m2eCnLSJIrz28ocGQv7FgQDc2kbc7H+tAAACT2p1bWIAAABBanVtZGNib3IAEQAQgAAAqgA4m3ETYzJwYS5hY3Rpb25zLnYyAAAAABhjMnNosWavorEya6s6r0pFRMwsZwAAAgZjYm9yomdhY3Rpb25zgaRmYWN0aW9ua2MycGEub3BlbmVkZHdoZW7AdDIwMjYtMDktMTFUMTA6MTE6MTBaanBhcmFtZXRlcnOja2luZ3JlZGllbnRzgaJjdXJseC1zZWxmI2p1bWJmPWMycGEuYXNzZXJ0aW9ucy9jMnBhLmluZ3JlZGllbnQudjNkaGFzaFggiF6okkUp/vrAMEJTBjakuAbZe4mSjO9E7da5rx/pgCpxY29tLmFkb2JlLmdlbkFpSWR4JDY1MTc1Y2E4LTEyYzAtNDAyMy1hMjdkLTdmODJlNDA4YzAyY3gbY29tLmFkb2JlLmRpZ2l0YWxTb3VyY2VUeXBleFNodHRwOi8vY3YuaXB0Yy5vcmcvbmV3c2NvZGVzL2RpZ2l0YWxzb3VyY2V0eXBlL2NvbXBvc2l0ZVdpdGhUcmFpbmVkQWxnb3JpdGhtaWNNZWRpYXFkaWdpdGFsU291cmNlVHlwZXhTaHR0cDovL2N2LmlwdGMub3JnL25ld3Njb2Rlcy9kaWdpdGFsc291cmNldHlwZS9jb21wb3NpdGVXaXRoVHJhaW5lZEFsZ29yaXRobWljTWVkaWFpdGVtcGxhdGVzgaJmYWN0aW9uYSpydGVtcGxhdGVQYXJhbWV0ZXJzoXVjb20uYWRvYmUuYXBwRW5mb3JjZWT1AAAAxGp1bWIAAABAanVtZGNib3IAEQAQgAAAqgA4m3ETYzJwYS5oYXNoLmRhdGEAAAAAGGMyc2ihvDWYZ7T2o9a3+6z1BP7xAAAAfGNib3KlamV4Y2x1c2lvbnOBomVzdGFydBjYZmxlbmd0aBlseGRuYW1lbmp1bWJmIG1hbmlmZXN0Y2FsZ2ZzaGEyNTZkaGFzaFggkSugwKESu1wRIDzrX0WW9USRA5T+tsnNyQEcSUIxFotjcGFkSQAAAAAAAAAAAAAAAmFqdW1iAAAAJ2p1bWRjMmNsABEAEIAAAKoAOJtxA2MycGEuY2xhaW0udjIAAAACMmNib3Kmamluc3RhbmNlSUR4LHhtcDppaWQ6NTdlMDQyYjItYjExOS00NGM4LWIzYmUtY2IyMGNkNmVmNzQwdGNsYWltX2dlbmVyYXRvcl9pbmZvo2RuYW1lcUFkb2JlIElsbHVzdHJhdG9yZ3ZlcnNpb25kMzAuOHdvcmcuY29udGVudGF1dGguYzJwYV9yc2YwLjg2LjFpc2lnbmF0dXJleE1zZWxmI2p1bWJmPS9jMnBhL3VybjpjMnBhOmRhZWZjM2JiLWU3NmUtNDE5My04MzE2LTU4ZmY2N2I3NGJjYS9jMnBhLnNpZ25hdHVyZXJjcmVhdGVkX2Fzc2VydGlvbnOBomN1cmx4KXNlbGYjanVtYmY9YzJwYS5hc3NlcnRpb25zL2MycGEuaGFzaC5kYXRhZGhhc2hYIPaGQiyUXhOtpSssHu4coztW2KyzvLbuVctvx67jYjlec2dhdGhlcmVkX2Fzc2VydGlvbnOComN1cmx4LXNlbGYjanVtYmY9YzJwYS5hc3NlcnRpb25zL2MycGEuaW5ncmVkaWVudC52M2RoYXNoWCBuYE/fQ3cSACRXEgPRl0bP8rTFRofv6bGO4Nc9cb/5daJjdXJseCpzZWxmI2p1bWJmPWMycGEuYXNzZXJ0aW9ucy9jMnBhLmFjdGlvbnMudjJkaGFzaFggBtHNdlFYDrQAm/PWwL4gE141i+VxiSOyg51WKzCqg3hjYWxnZnNoYTI1NgAALz1qdW1iAAAAKGp1bWRjMmNzABEAEIAAAKoAOJtxA2MycGEuc2lnbmF0dXJlAAAALw1jYm9y0oRZBAGiAScYIYJZAjswggI3MIIB6aADAgECAggA9LAA2m7RkDAFBgMrZXAwYDEgMB4GA1UEAxMXYzJwYS1lcGhlbWVyYWwtY2EubG9jYWwxPDA6BgNVBAoTM1NlbGYtc2lnbmVkIGVwaGVtZXJhbCBDQSAoQ29udGVudCBBdXRoZW50aWNpdHkgU0RLKTAeFw0yNjA5MTAxMDIwNTVaFw0yNzA5MTExMDIwNTVaMHsxIDAeBgNVBAMTF0Fkb2JlIENvbXBsaWFuY2UgU2lnbmVyMVcwVQYDVQQKE05TZWxmLXNpZ25lZCBlcGhlbWVyYWwgY2VydGlmaWNhdGUgKENvbnRlbnQgQXV0aGVudGljaXR5IFNESykgLS0gTE9DQUwgVVNFIE9OTFkwKjAFBgMrZXADIQAA3okuUFCAqzfu9SCBTJ3kN82L/rmF7g8A/jQm7bB2FKOBpTCBojAPBgNVHRMBAf8EBTADAQEAMA4GA1UdDwEB/wQEAwIAgDAdBgNVHSUEFjAUBggrBgEFBQcDBAYIKwYBBQUHAwAwGwYDVR0OBBSbvPYfltx5vCgclAG3hpRrOvsnYzAfBgNVHSMEGDAWgBTze96abXOV07O0E5X4+6osgzJ4vTAiBgNVHREEGzAZghdBZG9iZSBDb21wbGlhbmNlIFNpZ25lcjAFBgMrZXADQQA8NyZknpitkNxt9vKVRGxpYCcIsb5hih3lo3YGNUfZe/YY05SYssh31lJ/GfkROoy2Ur5TZZ3xbOXeNFqsL90AWQG6MIIBtjCCAWigAwIBAgIIANzQ40tw5yYwBQYDK2VwMGAxIDAeBgNVBAMTF2MycGEtZXBoZW1lcmFsLWNhLmxvY2FsMTwwOgYDVQQKEzNTZWxmLXNpZ25lZCBlcGhlbWVyYWwgQ0EgKENvbnRlbnQgQXV0aGVudGljaXR5IFNESykwHhcNMjYwOTEwMTAyMDU1WhcNMjcwOTExMTAyMDU1WjBgMSAwHgYDVQQDExdjMnBhLWVwaGVtZXJhbC1jYS5sb2NhbDE8MDoGA1UEChMzU2VsZi1zaWduZWQgZXBoZW1lcmFsIENBIChDb250ZW50IEF1dGhlbnRpY2l0eSBTREspMCowBQYDK2VwAyEAAiLsm0E5iRWDq1k4xkL2BmBamludN01LyYaVkCitiaCjQDA+MA8GA1UdEwEB/wQFMAMBAf8wDgYDVR0PAQH/BAQDAgCGMBsGA1UdDgQU83vemm1zldOztBOV+PuqLIMyeL0wBQYDK2VwA0EAkIJnstWc0yZarPqvL9aY4M1kqSmI3+QnXqQgcICrOd9DGm3qA40V+F6GcH2L1HXrhPrm133e5SSY5h0FttsfBaFjcGFkWSq0AAAAAAAAAAAAAAAAAAAAAAAAAAAAAAAAAAAAAAAAAAAAAAAAAAAAAAAAAAAAAAAAAAAAAAAAAAAAAAAAAAAAAAAAAAAAAAAAAAAAAAAAAAAAAAAAAAAAAAAAAAAAAAAAAAAAAAAAAAAAAAAAAAAAAAAAAAAAAAAAAAAAAAAAAAAAAAAAAAAAAAAAAAAAAAAAAAAAAAAAAAAAAAAAAAAAAAAAAAAAAAAAAAAAAAAAAAAAAAAAAAAAAAAAAAAAAAAAAAAAAAAAAAAAAAAAAAAAAAAAAAAAAAAAAAAAAAAAAAAAAAAAAAAAAAAAAAAAAAAAAAAAAAAAAAAAAAAAAAAAAAAAAAAAAAAAAAAAAAAAAAAAAAAAAAAAAAAAAAAAAAAAAAAAAAAAAAAAAAAAAAAAAAAAAAAAAAAAAAAAAAAAAAAAAAAAAAAAAAAAAAAAAAAAAAAAAAAAAAAAAAAAAAAAAAAAAAAAAAAAAAAAAAAAAAAAAAAAAAAAAAAAAAAAAAAAAAAAAAAAAAAAAAAAAAAAAAAAAAAAAAAAAAAAAAAAAAAAAAAAAAAAAAAAAAAAAAAAAAAAAAAAAAAAAAAAAAAAAAAAAAAAAAAAAAAAAAAAAAAAAAAAAAAAAAAAAAAAAAAAAAAAAAAAAAAAAAAAAAAAAAAAAAAAAAAAAAAAAAAAAAAAAAAAAAAAAAAAAAAAAAAAAAAAAAAAAAAAAAAAAAAAAAAAAAAAAAAAAAAAAAAAAAAAAAAAAAAAAAAAAAAAAAAAAAAAAAAAAAAAAAAAAAAAAAAAAAAAAAAAAAAAAAAAAAAAAAAAAAAAAAAAAAAAAAAAAAAAAAAAAAAAAAAAAAAAAAAAAAAAAAAAAAAAAAAAAAAAAAAAAAAAAAAAAAAAAAAAAAAAAAAAAAAAAAAAAAAAAAAAAAAAAAAAAAAAAAAAAAAAAAAAAAAAAAAAAAAAAAAAAAAAAAAAAAAAAAAAAAAAAAAAAAAAAAAAAAAAAAAAAAAAAAAAAAAAAAAAAAAAAAAAAAAAAAAAAAAAAAAAAAAAAAAAAAAAAAAAAAAAAAAAAAAAAAAAAAAAAAAAAAAAAAAAAAAAAAAAAAAAAAAAAAAAAAAAAAAAAAAAAAAAAAAAAAAAAAAAAAAAAAAAAAAAAAAAAAAAAAAAAAAAAAAAAAAAAAAAAAAAAAAAAAAAAAAAAAAAAAAAAAAAAAAAAAAAAAAAAAAAAAAAAAAAAAAAAAAAAAAAAAAAAAAAAAAAAAAAAAAAAAAAAAAAAAAAAAAAAAAAAAAAAAAAAAAAAAAAAAAAAAAAAAAAAAAAAAAAAAAAAAAAAAAAAAAAAAAAAAAAAAAAAAAAAAAAAAAAAAAAAAAAAAAAAAAAAAAAAAAAAAAAAAAAAAAAAAAAAAAAAAAAAAAAAAAAAAAAAAAAAAAAAAAAAAAAAAAAAAAAAAAAAAAAAAAAAAAAAAAAAAAAAAAAAAAAAAAAAAAAAAAAAAAAAAAAAAAAAAAAAAAAAAAAAAAAAAAAAAAAAAAAAAAAAAAAAAAAAAAAAAAAAAAAAAAAAAAAAAAAAAAAAAAAAAAAAAAAAAAAAAAAAAAAAAAAAAAAAAAAAAAAAAAAAAAAAAAAAAAAAAAAAAAAAAAAAAAAAAAAAAAAAAAAAAAAAAAAAAAAAAAAAAAAAAAAAAAAAAAAAAAAAAAAAAAAAAAAAAAAAAAAAAAAAAAAAAAAAAAAAAAAAAAAAAAAAAAAAAAAAAAAAAAAAAAAAAAAAAAAAAAAAAAAAAAAAAAAAAAAAAAAAAAAAAAAAAAAAAAAAAAAAAAAAAAAAAAAAAAAAAAAAAAAAAAAAAAAAAAAAAAAAAAAAAAAAAAAAAAAAAAAAAAAAAAAAAAAAAAAAAAAAAAAAAAAAAAAAAAAAAAAAAAAAAAAAAAAAAAAAAAAAAAAAAAAAAAAAAAAAAAAAAAAAAAAAAAAAAAAAAAAAAAAAAAAAAAAAAAAAAAAAAAAAAAAAAAAAAAAAAAAAAAAAAAAAAAAAAAAAAAAAAAAAAAAAAAAAAAAAAAAAAAAAAAAAAAAAAAAAAAAAAAAAAAAAAAAAAAAAAAAAAAAAAAAAAAAAAAAAAAAAAAAAAAAAAAAAAAAAAAAAAAAAAAAAAAAAAAAAAAAAAAAAAAAAAAAAAAAAAAAAAAAAAAAAAAAAAAAAAAAAAAAAAAAAAAAAAAAAAAAAAAAAAAAAAAAAAAAAAAAAAAAAAAAAAAAAAAAAAAAAAAAAAAAAAAAAAAAAAAAAAAAAAAAAAAAAAAAAAAAAAAAAAAAAAAAAAAAAAAAAAAAAAAAAAAAAAAAAAAAAAAAAAAAAAAAAAAAAAAAAAAAAAAAAAAAAAAAAAAAAAAAAAAAAAAAAAAAAAAAAAAAAAAAAAAAAAAAAAAAAAAAAAAAAAAAAAAAAAAAAAAAAAAAAAAAAAAAAAAAAAAAAAAAAAAAAAAAAAAAAAAAAAAAAAAAAAAAAAAAAAAAAAAAAAAAAAAAAAAAAAAAAAAAAAAAAAAAAAAAAAAAAAAAAAAAAAAAAAAAAAAAAAAAAAAAAAAAAAAAAAAAAAAAAAAAAAAAAAAAAAAAAAAAAAAAAAAAAAAAAAAAAAAAAAAAAAAAAAAAAAAAAAAAAAAAAAAAAAAAAAAAAAAAAAAAAAAAAAAAAAAAAAAAAAAAAAAAAAAAAAAAAAAAAAAAAAAAAAAAAAAAAAAAAAAAAAAAAAAAAAAAAAAAAAAAAAAAAAAAAAAAAAAAAAAAAAAAAAAAAAAAAAAAAAAAAAAAAAAAAAAAAAAAAAAAAAAAAAAAAAAAAAAAAAAAAAAAAAAAAAAAAAAAAAAAAAAAAAAAAAAAAAAAAAAAAAAAAAAAAAAAAAAAAAAAAAAAAAAAAAAAAAAAAAAAAAAAAAAAAAAAAAAAAAAAAAAAAAAAAAAAAAAAAAAAAAAAAAAAAAAAAAAAAAAAAAAAAAAAAAAAAAAAAAAAAAAAAAAAAAAAAAAAAAAAAAAAAAAAAAAAAAAAAAAAAAAAAAAAAAAAAAAAAAAAAAAAAAAAAAAAAAAAAAAAAAAAAAAAAAAAAAAAAAAAAAAAAAAAAAAAAAAAAAAAAAAAAAAAAAAAAAAAAAAAAAAAAAAAAAAAAAAAAAAAAAAAAAAAAAAAAAAAAAAAAAAAAAAAAAAAAAAAAAAAAAAAAAAAAAAAAAAAAAAAAAAAAAAAAAAAAAAAAAAAAAAAAAAAAAAAAAAAAAAAAAAAAAAAAAAAAAAAAAAAAAAAAAAAAAAAAAAAAAAAAAAAAAAAAAAAAAAAAAAAAAAAAAAAAAAAAAAAAAAAAAAAAAAAAAAAAAAAAAAAAAAAAAAAAAAAAAAAAAAAAAAAAAAAAAAAAAAAAAAAAAAAAAAAAAAAAAAAAAAAAAAAAAAAAAAAAAAAAAAAAAAAAAAAAAAAAAAAAAAAAAAAAAAAAAAAAAAAAAAAAAAAAAAAAAAAAAAAAAAAAAAAAAAAAAAAAAAAAAAAAAAAAAAAAAAAAAAAAAAAAAAAAAAAAAAAAAAAAAAAAAAAAAAAAAAAAAAAAAAAAAAAAAAAAAAAAAAAAAAAAAAAAAAAAAAAAAAAAAAAAAAAAAAAAAAAAAAAAAAAAAAAAAAAAAAAAAAAAAAAAAAAAAAAAAAAAAAAAAAAAAAAAAAAAAAAAAAAAAAAAAAAAAAAAAAAAAAAAAAAAAAAAAAAAAAAAAAAAAAAAAAAAAAAAAAAAAAAAAAAAAAAAAAAAAAAAAAAAAAAAAAAAAAAAAAAAAAAAAAAAAAAAAAAAAAAAAAAAAAAAAAAAAAAAAAAAAAAAAAAAAAAAAAAAAAAAAAAAAAAAAAAAAAAAAAAAAAAAAAAAAAAAAAAAAAAAAAAAAAAAAAAAAAAAAAAAAAAAAAAAAAAAAAAAAAAAAAAAAAAAAAAAAAAAAAAAAAAAAAAAAAAAAAAAAAAAAAAAAAAAAAAAAAAAAAAAAAAAAAAAAAAAAAAAAAAAAAAAAAAAAAAAAAAAAAAAAAAAAAAAAAAAAAAAAAAAAAAAAAAAAAAAAAAAAAAAAAAAAAAAAAAAAAAAAAAAAAAAAAAAAAAAAAAAAAAAAAAAAAAAAAAAAAAAAAAAAAAAAAAAAAAAAAAAAAAAAAAAAAAAAAAAAAAAAAAAAAAAAAAAAAAAAAAAAAAAAAAAAAAAAAAAAAAAAAAAAAAAAAAAAAAAAAAAAAAAAAAAAAAAAAAAAAAAAAAAAAAAAAAAAAAAAAAAAAAAAAAAAAAAAAAAAAAAAAAAAAAAAAAAAAAAAAAAAAAAAAAAAAAAAAAAAAAAAAAAAAAAAAAAAAAAAAAAAAAAAAAAAAAAAAAAAAAAAAAAAAAAAAAAAAAAAAAAAAAAAAAAAAAAAAAAAAAAAAAAAAAAAAAAAAAAAAAAAAAAAAAAAAAAAAAAAAAAAAAAAAAAAAAAAAAAAAAAAAAAAAAAAAAAAAAAAAAAAAAAAAAAAAAAAAAAAAAAAAAAAAAAAAAAAAAAAAAAAAAAAAAAAAAAAAAAAAAAAAAAAAAAAAAAAAAAAAAAAAAAAAAAAAAAAAAAAAAAAAAAAAAAAAAAAAAAAAAAAAAAAAAAAAAAAAAAAAAAAAAAAAAAAAAAAAAAAAAAAAAAAAAAAAAAAAAAAAAAAAAAAAAAAAAAAAAAAAAAAAAAAAAAAAAAAAAAAAAAAAAAAAAAAAAAAAAAAAAAAAAAAAAAAAAAAAAAAAAAAAAAAAAAAAAAAAAAAAAAAAAAAAAAAAAAAAAAAAAAAAAAAAAAAAAAAAAAAAAAAAAAAAAAAAAAAAAAAAAAAAAAAAAAAAAAAAAAAAAAAAAAAAAAAAAAAAAAAAAAAAAAAAAAAAAAAAAAAAAAAAAAAAAAAAAAAAAAAAAAAAAAAAAAAAAAAAAAAAAAAAAAAAAAAAAAAAAAAAAAAAAAAAAAAAAAAAAAAAAAAAAAAAAAAAAAAAAAAAAAAAAAAAAAAAAAAAAAAAAAAAAAAAAAAAAAAAAAAAAAAAAAAAAAAAAAAAAAAAAAAAAAAAAAAAAAAAAAAAAAAAAAAAAAAAAAAAAAAAAAAAAAAAAAAAAAAAAAAAAAAAAAAAAAAAAAAAAAAAAAAAAAAAAAAAAAAAAAAAAAAAAAAAAAAAAAAAAAAAAAAAAAAAAAAAAAAAAAAAAAAAAAAAAAAAAAAAAAAAAAAAAAAAAAAAAAAAAAAAAAAAAAAAAAAAAAAAAAAAAAAAAAAAAAAAAAAAAAAAAAAAAAAAAAAAAAAAAAAAAAAAAAAAAAAAAAAAAAAAAAAAAAAAAAAAAAAAAAAAAAAAAAAAAAAAAAAAAAAAAAAAAAAAAAAAAAAAAAAAAAAAAAAAAAAAAAAAAAAAAAAAAAAAAAAAAAAAAAAAAAAAAAAAAAAAAAAAAAAAAAAAAAAAAAAAAAAAAAAAAAAAAAAAAAAAAAAAAAAAAAAAAAAAAAAAAAAAAAAAAAAAAAAAAAAAAAAAAAAAAAAAAAAAAAAAAAAAAAAAAAAAAAAAAAAAAAAAAAAAAAAAAAAAAAAAAAAAAAAAAAAAAAAAAAAAAAAAAAAAAAAAAAAAAAAAAAAAAAAAAAAAAAAAAAAAAAAAAAAAAAAAAAAAAAAAAAAAAAAAAAAAAAAAAAAAAAAAAAAAAAAAAAAAAAAAAAAAAAAAAAAAAAAAAAAAAAAAAAAAAAAAAAAAAAAAAAAAAAAAAAAAAAAAAAAAAAAAAAAAAAAAAAAAAAAAAAAAAAAAAAAAAAAAAAAAAAAAAAAAAAAAAAAAAAAAAAAAAAAAAAAAAAAAAAAAAAAAAAAAAAAAAAAAAAAAAAAAAAAAAAAAAAAAAAAAAAAAAAAAAAAAAAAAAAAAAAAAAAAAAAAAAAAAAAAAAAAAAAAAAAAAAAAAAAAAAAAAAAAAAAAAAAAAAAAAAAAAAAAAAAAAAAAAAAAAAAAAAAAAAAAAAAAAAAAAAAAAAAAAAAAAAAAAAAAAAAAAAAAAAAAAAAAAAAAAAAAAAAAAAAAAAAAAAAAAAAAAAAAAAAAAAAAAAAAAAAAAAAAAAAAAAAAAAAAAAAAAAAAAAAAAAAAAAAAAAAAAAAAAAAAAAAAAAAAAAAAAAAAAAAAAAAAAAAAAAAAAAAAAAAAAAAAAAAAAAAAAAAAAAAAAAAAAAAAAAAAAAAAAAAAAAAAAAAAAAAAAAAAAAAAAAAAAAAAAAAAAAAAAAAAAAAAAAAAAAAAAAAAAAAAAAAAAAAAAAAAAAAAAAAAAAAAAAAAAAAAAAAAAAAAAAAAAAAAAAAAAAAAAAAAAAAAAAAAAAAAAAAAAAAAAAAAAAAAAAAAAAAAAAAAAAAAAAAAAAAAAAAAAAAAAAAAAAAAAAAAAAAAAAAAAAAAAAAAAAAAAAAAAAAAAAAAAAAAAAAAAAAAAAAAAAAAAAAAAAAAAAAAAAAAAAAAAAAAAAAAAAAAAAAAAAAAAAAAAAAAAAAAAAAAAAAAAAAAAAAAAAAAAAAAAAAAAAAAAAAAAAAAAAAAAAAAAAAAAAAAAAAAAAAAAAAAAAAAAAAAAAAAAAAAAAAAAAAAAAAAAAAAAAAAAAAAAAAAAAAAAAAAAAAAAAAAAAAAAAAAAAAAAAAAAAAAAAAAAAAAAAAAAAAAAAAAAAAAAAAAAAAAAAAAAAAAAAAAAAAAAAAAAAAAAAAAAAAAAAAAAAAAAAAAAAAAAAAAAAAAAAAAAAAAAAAAAAAAAAAAAAAAAAAAAAAAAAAAAAAAAAAAAAAAAAAAAAAAAAAAAAAAAAAAAAAAAAAAAAAAAAAAAAAAAAAAAAAAAAAAAAAAAAAAAAAAAAAAAAAAAAAAAAAAAAAAAAAAAAAAAAAAAAAAAAAAAAAAAAAAAAAAAAAAAAAAAAAAAAAAAAAAAAAAAAAAAAAAAAAAAAAAAAAAAAAAAAAAAAAAAAAAAAAAAAAAAAAAAAAAAAAAAAAAAAAAAAAAAAAAAAAAAAAAAAAAAAAAAAAAAAAAAAAAAAAAAAAAAAAAAAAAAAAAAAAAAAAAAAAAAAAAAAAAAAAAAAAAAAAAAAAAAAAAAAAAAAAAAAAAAAAAAAAAAAAAAAAAAAAAAAAAAAAAAAAAAAAAAAAAAAAAAAAAAAAAAAAAAAAAAAAAAAAAAAAAAAAAAAAAAAAAAAAAAAAAAAAAAAAAAAAAAAAAAAAAAAAAAAAAAAAAAAAAAAAAAAAAAAAAAAAAAAAAAAAAAAAAAAAAAAAAAAAAAAAAAAAAAAAAAAAAAAAAAAAAAAAAAAAAAAAAAAAAAAAAAAAAAAAAAAAAAAAAAAAAAAAAAAAAAAAAAAAAAAAAAAAAAAAAAAAAAAAAAAAAAAAAAAAAAAAAAAAAAAAAAAAAAAAAAAAAAAAAAAAAAAAAAAAAAAAAAAAAAAAAAAAAAAAAAAAAAAAAAAAAAAAAAAAAAAAAAAAAAAAAAAAAAAAAAAAAAAAAAAAAAAAAAAAAAAAAAAAAAAAAAAAAAAAAAAAAAAAAAAAAAAAAAAAAAAAAAAAAAAAAAAAAAAAAAAAAAAAAAAAAAAAAAAAAAAAAAAAAAAAAAAAAAAAAAAAAAAAAAAAAAAAAAAAAAAAAAAAAAAAAAAAAAAAAAAAAAAAAAAAAAAAAAAAAAAAAAAAAAAAAAAAAAAAAAAAAAAAAAAAAAAAAAAAAAAAAAAAAAAAAAAAAAAAAAAAAAAAAAAAAAAAAAAAAAAAAAAAAAAAAAAAAAAAAAAAAAAAAAAAAAAAAAAAAAAAAAAAAAAAAAAAAAAAAAAAAAAAAAAAAAAAAAAAAAAAAAAAAAAAAAAAAAAAAAAAAAAAAAAAAAAAAAAAAAAAAAAAAAAAAAAAAAAAAAAAAAAAAAAAAAAAAAAAAAAAAAAAAAAAAAAAAAAAAAAAAAAAAAAAAAAAAAAAAAAAAAAAAAAAAAAAAAAAAAAAAAAAAAAAAAAAAAAAAAAAAAAAAAAAAAAAAAAAAAAAAAAAAAAAAAAAAAAAAAAAAAAAAAAAAAAAAAAAAAAAAAAAAAAAAAAAAAAAAAAAAAAAAAAAAAAAAAAAAAAAAAAAAAAAAAAAAAAAAAAAAAAAAAAAAAAAAAAAAAAAAAAAAAAAAAAAAAAAAAAAAAAAAAAAAAAAAAAAAAAAAAAAAAAAAAAAAAAAAAAAAAAAAAAAAAAAAAAAAAAAAAAAAAAAAAAAAAAAAAAAAAAAAAAAAAAAAAAAAAAAAAAAAAAAAAAAAAAAAAAAAAAAAAAAAAAAAAAAAAAAAAAAAAAAAAAAAAAAAAAAAAAAAAAAAAAAAAAAAAAAAAAAAAAAAAAAAAAAAAAAAAAAAAAAAAAAAAAAAAAAAAAAAAAAAAAAAAAAAAAAAAAAAAAAAAAAAAAAAAAAAAAAAAAAAAAAAAAAAAAAAAAAAAAAAAAAAAAAAAAAAAAAAAAAAAAAAAAAAAAAAAAAAAAAAAAAAAAAAAAAAAAAAAAAAAAAAAAAAAAAAAAAAAAAAAAAAAAAAAAAAAAAAAAAAAAAAAAAAAAAAAAAAAAAAAAAAAAAAAAAAAAAAAAAAAAAAAAAAAAAAAAAAAAAAAAAAAAAAAAAAAAAAAAAAAAAAAAAAAAAAAAAAAAAAAAAAAAAAAAAAAAAAAAAAAAAAAAAAAAAAAAAAAAAAAAAAAAAAAAAAAAAAAAAAAAAAAAAAAAAAAAAAAAAAAAAAAAAAAAAAAAAAAAAAAAAAAAAAAAAAAAAAAAAAAAAAAAAAAAAAAAAAAAAAAAAAAAAAAAAAAAAAAAAAAAAAAAAAAAAAAAAAAAAAAAAAAAAAAAAAAAAAAAAAAAAAAAAAAAAAAAAAAAAAAAAAAAAAAAAAAAAAAAAAAAAAAAAAAAAAAAAAAAAAAAAAAAAAAAAAAAAAAAAAAAAAAAAAAAAAAAAAAAAAAAAAAAAAAAAAAAAAAAAAAAAAAAAAAAAAAAAAAAAAAAAAAAAAAAAAAAAAAAAAAAAAAAAAAAAAAAAAAAAAAAAAAAAAAAAAAAAAAAAAAAAAAAAAAAAAAAAAAAAAAAAAAAAAAAAAAAAAAAAAAAAAAAAAAAAAAAAAAAAAAAAAAAAAAAAAAAAAAAAAAAAAAAAAAAAAAAAAAAAAAAAAAAAAAAAAAAAAAAAAAAAAAAAAAAAAAAAAAAAAAAAAAAAAAAAAAAAAAAAAAAAAAAAAAAAAAAAAAAAAAAAAAAAAAAAAAAAAAAAAAAAAAAAAAAAAAAAAAAAAAAAAAAAAAAAAAAAAAAAAAAAAAAAAAAAAAAAAAAAAAAAAAAAAAAAAAAAAAAAAAAAAAAAAAAAAAAAAAAAAAAAAAAAAAAAAAAAAAAAAAAAAAAAAAAAAAAAAAAAAAAAAAAAAAAAAAAAAAAAAAAAAAAAAAAAAAAAAAAAAAAAAAAAAAAAAAAAAAAAAAAAAAAAAAAAAAAAAAAAAAAAAAAAAAAAAAAAAAAAAAAAAAAAAAAAAAAAAAAAAAAAAAAAAAAAAAAAAAAAAAAAAAAAAAAAAAAAAAAAAAAAAAAAAAAAAAAAAAAAAAAAAAAAAAAAAAAAAAAAAAAAAAAAAAAAAAAAAAAAAAAAAAAAAAAAAAAAAAAAAAAAAAAAAAAAAAAAAAAAAAAAAAAAAAAAAAAAAAAAAAAAAAAAAAAAAAAAAAAAAAAAAAAAAAAAAAAAAAAAAAAAAAAAAAAAAAAAAAAAAAAAAAAAAAAAAAAAAAAAAAAAAAAAAAAAAAAAAAAAAAAAAAAAAAAAAAAAAAAAAAAAAAAAAAAAAAAAAAAAAAAAAAAAAAAAAAAAAAAAAAAAAAAAAAAAAAAAAAAAAAAAAAAAAAAAAAAAAAAAAAAAAAAAAAAAAAAAAAAAAAAAAAAAAAAAAAAAAAAAAAAAAAAAAAAAAAAAAAAAAAAAAAAAAAAAAAAAAAAAAAAAAAAAAAAAAAAAAAAAAAAAAAAAAAAAAAAAAAAAAAAAAAAAAAAAAAAAAAAAAAAAAAAAAAAAAAAAAAAAAAAAAAAAAAAAAAAAAAAAAAAAAAAAAAAAAAAAAAAAAAAAAAAAAAAAAAAAAAAAAAAAAAAAAAAAAAAAAAAAAAAAAAAAAAAAAAAAAAAAAAAAAAAAAAAAAAAAAAAAAAAAAAAAAAAAAAAAAAAAAAAAAAAAAAAAAAAAAAAAAAAAAAAAAAAAAAAAAAAAAAAAAAAAAAAAAAAAAAAAAAAAAAAAAAAAAAAAAAAAAAAAAAAAAAAAAAAAAAAAAAAAAAAAAAAAAAAAAAAAAAAAAAAAAAAAAAAAAAAAAAAAAAAAAAAAAAAAAAAAAAAAAAAAAAAAAAAAAAAAAAAAAAAAAAAAAAAAAAAAAAAAAAAAAAAAAAAAAAAAAAAAAAAAAAAAAAAAAAAAAAAAAAAAAAAAAAAAAAAAAAAAAAAAAAAAAAAAAAAAAAAAAAAAAAAAAAAAAAAAAAAAAAAAAAAAAAAAAAAAAAAAAAAAAAAAAAAAAAAAAAAAAAAAAAAAAAAAAAAAAAAAAAAAAAAAAAAAAAAAAAAAAAAAAAAAAAAAAAAAAAAAAAAAAAAAAAAAAAAAAAAAAAAAAAAAAAAAAAAAAAAAAAAAAAAAAAAAAAAAAAAAAAAAAAAAAAAAAAAAAAAAAAAAAAAAAAAAAAAAAAAAAAAAAAAAAAAAAAAAAAAAAAAAAAAAAAAAAAAAAAAAAAAAAAAAAAAAAAAAAAAAAAAAAAAAAAAAAAAAAAAAAAAAAAAAAAAAAAAAAAAAAAAAAAAAAAAAAAAAAAAAAAAAAAAAAAAAAAAAAAAAAAAAAAAAAAAAAAAAAAAAAAAAAAAAAAAAAAAAAAAAAAAAAAAAAAAAAAAAAAAAAAAAAAAAAAAAAAAAAAAAAAAAAAAAAAAAAAAAAAAAAAAAAAAAAAAAAAAAAAAAAAAAAAAAAAAAAAAAAAAAAAAAAAAAAAAAAAAAAAAAAAAAAAAAAAAAAAAAAAAAAAAAAAAAAAAAAAAAAAAAAAAAAAAAAAAAAAAAAAAAAAAAAAAAAAAAAAAAAAAAAAAAAAAAAAAAAAAAAAAAAAAAAAAAAAAAAAAAAAAAAAAAAAAAAAAAAAAAAAAAAAAAAAAAAAAAAAAAAAAAAAAAAAAAAAAAAAAAAAAAAAAAAAAAAAAAAAAAAAAAAAAAAAAAAAAAAAAAAAAAAAAAAAAAAAAAAAAAAAAAAAAAAAAAAAAAAAAAAAAAAAAAAAAAAAAAAAAAAAAAAAAAAAAAAAAAAAAAAAAAAAAAAAAAAAAAAAAAAAAAAAAAAAAAAAAAAAAAAAAAAAAAAAAAAAAAAAAAAAAAAAAAAAAAAAAAAAAAAAAAAAAAAAAAAAAAAAAAAAAAAAAAAAAAAAAAAAAAAAAAAAAAAAAAAAAAAAAAAAAAAAAAAAAAAAAAAAAAAAAAAAAAAAAAAAAAAAAAAAAAAAAAAAAAAAAAAAAAAAAAAAAAAAAAAAAAAAAAAAAAAAAAAAAAAAAAAAAAAAAAAAAAAAAAAAAAAAAAAAAAAAAAAAAAAAAAAAAAAAAAAAAAAAAAAAAAAAAAAAAAAAAAAAAAAAAAAAAAAAAAAAAAAAAAAAAAAAAAAAAAAAAAAAAAAAAAAAAAAAAAAAAAAAAAAAAAAAAAAAAAAAAAAAAAAAAAAAAAAAAAAAAAAAAAAAAAAAAAAAAAAAAAAAAAAAAAAAAAAAAAAAAAAAAAAAAAAAAAAAAAAAAAAAAAAAAAAAAAAAAAAAAAAAAAAAAAAAAAAAAAAAAAAAAAAAAAAAAAAAAAAAAAAAAAAAAAAAAAAAAAAAAAAAAAAAAAAAAAAAAAAAAAAAAAAAAAAAAAAAAAAAAAAAAAAAAAAAAAAAAAAAAAAAAAAAAAAAAAAAAAAAAAAAAAAAAAAAAAAAAAAAAAAAAAAAAAAAAAAAAAAAAAAAAAAAAAAAAAAAAAAAAAAAAAAAAAAAAAAAAAAAAAAAAAAAAAAAAAAAAAAAAAAAAAAAAAAAAAAAAAAAAAAAAAAAAAAAAAAAAAAAAAAAAAAAAAAAAAAAAAAAAAAAAAAAAAAAAAAAAAAAAAAAAAAAAAAAAAAAAAAAAAAAAAAAAAAAAAAAAAAAAAAAAAAAAAAAAAAAAAAAAAAAAAAAAAAAAAAAAAAAAAAAAAAAAAAAAAAAAAAAAAAAAAAAAAAAAAAAAAAAAAAAAAAAAAAAAAAAAAAAAAAAAAAAAAAAAAAAAAAAAAAAAAAAAAAAAAAAAAAAAAAAAAAAAAAAAAAAAAAAAAAAAAAAAAAAAAAAAAAAAAAAAAAAAAAAAAAAAAAAAAAAAAAAAAAAAAAAAAAAAAAAAAAAAAAAAAAAAAAAAAAAAAAAAAAAAAAAAAAAAAAAAAAAAAAAAAAAAAAAAAAAAAAAAAAAAAAAAAAAAAAAAAAAAAAAAAAAAAAAAAAAAAAAAAAAAAAAAAAAAAAAAAAAAAAAAAAAAAAAAAAAAAAAAAAAAAAAAAAAAAAAAAAAAAAAAAAAAAAAAAAAAAAAAAAAAAAAAAAAAAAAAAAAAAAAAAAAAAAAAAAAAAAAAAAAAAAAAAAAAAAAAAAAAAAAAAAAAAAAAAAAAAAAAAAAAAAAAAAAAAAAAAAAAAAAAAAAAAAAAAAAAAAAAAAAAAAAAAAAAAAAAAAAAAAAAAAAAAAAAAAAAAAAAAAAAAAAAAAAAAAAAAAAAAAAAAAAAAAAAAAAAAAAAAAAAAAAAAAAAAAAAAAAAAAAAAAAAAAAAAAAAAAAAAAAAAAAAAAAAAAAAAAAAAAAAAAAAAAAAAAAAAAAAAAAAAAAAAAAAAAAAAAAAAAAAAAAAAAAAAAAAAAAAAAAAAAAAAAAAAAAAAAAAAAAAAAAAAAAAAAAAAAAAAAAAAAAAAAAAAAAAAAAAAAAAAAAAAAAAAAAAAAAAAAAAAAAAAAAAAAAAAAAAAAAAAAAAAAAAAAAAAAAAAAAAAAAAAAAAAAAAAAAAAAAAAAAAAAAAAAAAAAAAAAAAAAAAAAAAAAAAAAAAAAAAAAAAAAAAAAAAAAAAAAAAAAAAAAAAAAAAAAAAAAAAAAAAAAAAAAAAAAAAAAAAAAAAAAAAAAAAAAAAAAAAAAAAAAAAAAAAAAAAAAAAAAAAAAAAAAAAAAAAAAAAAAAAAAAAAAAAAAAAAAAAAAAAAAAAAAAAAAAAAAAAAAAAAAAAAAAAAAAAAAAAAAAAAAAAAAAAAAAAAAAAAAAAAAAAAAAAAAAAAAAAAAAAAAAAAAAAAAAAAAAAAAAAAAAAAAAAAAAAAAAAAAAAAAAAAAAAAAAAAAAAAAAAAAAAAAAAAAAAAAAAAAAAAAAAAAAAAAAAAAAAAAAAAAAAAAAAAAAAAAAAAAAAAAAAAAAAAAAAAAAAAAAAAAAAAAAAAAAAAAAAAAAAAAAAAAAAAAAAAAAAAAAAAAAAAAAAAAAAAAAAAAAAAAAAAAAAAAAAAAAAAAAAAAAAAAAAAAAAAAAAAAAAAAAAAAAAAAAAAAAAAAAAAAAAAAAAAAAAAAAAAAAAAAAAAAAAAAAAAAAAAAAAAAAAAAAAAAAAAAAAAAAAAAAAAAAAAAAAAAAAAAAAAAAAAAAAAAAAAAAAAAAAAAAAAAAAAAAAAAAAAAAAAAAAAAAAAAAAAAAAAAAAAAAAAAAAAAAAAAAAAAAAAAAAAAAAAAAAAAAAAAAAAAAAAAAAAAAAAAAAAAAAAAAAAAAAAAAAAAAAAAAAAAAAAAAAAAAAAAAAAAAAAAAAAAAAAAAAAAAAAAAAAAAAAAAAAAAAAAAAAAAAAAAAAAAAAAAAAAAAAAAAAAAAAAAAAAAAAAAAAAAAAAAAAAAAAAAAAAAAAAAAAAAAAAAAAAAAAAAAAAAAAAAAAAAAAAAAAAAAAAAAAAAAAAAAAAAAAAAAAAAAAAAAAAAAAAAAAAAAAAAAAAAAAAAAAAAAAAAAAAAAAAAAAAAAAAAAAAAAAAAAAAAAAAAAAAAAAAAAAAAAAAAAAAAAAAAAAAAAAAAAAAAAAAAAAAAAAAAAAAAAAAAAAAAAAAAAAAAAAAAAAAAAAAAAAAAAAAAAAAAAAAAAAAAAAAAAAAAAAAAAAAAAAAAAAAAAAAAAAAAAAAAAAAAAAAAAAAAAAAAAAAAAAAAAAAAAAAAAAAAAAAAAAAAAAAAAAAAAAAAAAAAAAAAAAAAAAAAAAAAAAAAAAAAAAAAAAAAAAAAAAAAAAAAAAAAAAAAAAAAAAAAAAAAAAAAAAAAAAAAAAAAAAAAAAAAAAAAAAAAAAAAAAAAAAAAAAAAAAAAAAAAAAAAAAAAAAAAAAAAAAAAAAAAAAAAAAAAAAAAAAAAAAAAAAAAAAAAAAAAAAAAAAAAAAAAAAAAAAAAAAAAAAAAAAAAAAAAAAAAAAAAAAAAAAAAAAAAAAAAAAAAAAAAAAAAAAAAAAAAAAAAAAAAAAAAAAAAAAAAAAAAAAAAAAAAAAAAAAAAAAAAAAAAAAAAAAAAAAAAAAAAAAAAAAAAAAAAAAAAAAAAAAAAAAAAAAAAAAAAAAAAAAAAAAAAAAAAAAAAAAAAAAAAAAAAAAAAAAAAAAAAAAAAAAAAAAAAAAAAAAAAAAAAAAAAAAAAAAAAAAAAAAAAAAAAAAAAAAAAAAAAA9lhAmIXilXIXlpavZPZ4REIQk9Re4KYf82ngytvqq5N9145+vU+o99eoKF+Niv6+NtHh7an9yy5AtleaZmFOzZzEDw==</c2pa:manifest></metadata>
  <defs>
    <style>
      .cls-1 {
        fill: #c0a27e;
      }

      .cls-2 {
        fill: #e5e0d4;
      }

      .cls-3 {
        fill: #60402c;
      }
    </style>
  </defs>
  <g id="_レイヤー_1-2" data-name="レイヤー 1">
    <g>
      <path class="cls-2" d="M13.03,5.37c-.13.01-.45-.05-.58-.15-1.05.04-2.09.9-3.02,1.54-.61.42-1.02.74-1.03,1.45,0,.38-.35.95-.69,1.16-.24.14-.48.16-.59.57-.05.19-.15.47.11.68v.46c-.27-.03-.37.17-.52.47l-.47,1.02-.7.21s-.12-.18-.2-.21c-.15-.06-.21.04-.23.11-.04.09,0,.32-.04.38-.67.73-2.33.41-4.07,3.57-1.47,2.67-1.37,5.78.75,8.19,1.93,2.19,4.91,3.31,7.85,3.35-.49-3.77-1.55-7.14-2.85-10.56-.5-1.33-.3-2.84,1.06-3.52s3.73-.52,4.59.95c1.33,2.28,2.02,4.74,2.93,7.23l3.18.26c-.03-1.15-1.06-2.35-1.85-2.86l-.47-.3c.53.46.3-.3.44-.03.09.03.11.09.11.13,1.85.26,2.71,1.94,3.83,3.29.85.74,2.8.66,3.39,1.89,2.04,4.22-.03,10.89-1.67,11.13l-5.47.81c-.62-6.88-2.41-13.31-5.1-19.56-.38-.89-.56-1.84-1.64-2.05-.64-.13-1.35.04-1.75.48-.41.46-.45,1.09-.2,1.77,1.73,4.55,3.08,9.17,3.29,14.07.03.67.12,1.16.21,1.75,1.04,7.07-.53,17.72-2.87,24.99l3.23.06c2.33-5.35,4.09-11.31,4.57-17.23l8.67-.26,12.9.16c.73,5.96,2.16,11.7,4.45,17.3l3.2.02c-1.31-4.69-2.23-9.34-2.51-14.23-.06-1.07-.52-2.33-.17-3.38.45-.34,1.43-.59,1.49-1.24.07-.76-.07-1.41-.74-1.9-.91-.67-1.99-.81-3.13-.89l-4.72-.33c-1.33-.09-3.03.17-4.26-.63-1.83-2.15-2.3-5.65-1.25-8.26.47-1.16,1.65-1.76,2.57-2.33l-.36,1.25c.77-.33,1.31-.19,1.89-.03l5.97,1.62c4.95,1.34,10.74.41,13.29-4.04,1.58-2.77,1-5.68-.73-8.07-1.25-1.73-2.8-2.61-4.8-3.63-.51-1.13-.1-2.33-1.04-2.3-.02-.07-.02-.2.04-.29-.81-1.9-2.43-3.45-4.57-4.05-1.39-.39-2.87-.86-4.32-.88-1.01-.02-1.29-.16-1.9-.92-3.65-4.53-14.45-4.99-18.76.42-.69.86-4.25-.1-4.76,1.42ZM22.25,25.89c-1.97-1.53-4.14-1.97-6.36-2.17.14,1.31.55,2.27,1.03,3.42,1.76-.57,3.35-.83,5.33-1.25ZM25.74,50.64l.43.13c0,.17.02.31-.03.42-.04.09,0,.17,0,.32.02.19.05.53-.03.64-.28.4,0,.68.01,1.04l.04.94c-.34.31-.33.98-.02,1.48v2.29c-.28.09-.09.39.16.21.5.2,1.67.26,2.01-.26l.07-9.27c1.2,2.93,2.81,5.7,5.79,7.2.39-.77.95-1.36,1.75-1.46.02-.26-.05-.46-.12-.49-2.51-.95-6.04-3.46-7.03-6.1l7.08-.11c-.53-1.01-1.42-1.3-2.3-1.78l-1.59,1.28-3.61-.21.07-2.63c.14-.21.49-.41.54-.86-.97-.25-1.79-.42-2.82-.38v4.05s-6.89-.09-6.89-.09c-.14.11-.03.71.27.71l5.27.03c-1.25,3.18-3.39,5.59-5.88,7.62-.16.13-.07.49.05.5,1.51.01,5.18-3.22,6.76-5.21Z"/>
      <g>
        <path class="cls-3" d="M26.3,58.1l-.16-.21v-2.29s.02-1.48.02-1.48l-.04-.94v-1.04c.06-.11.04-.45.02-.64v-.32c.04-.12.02-.25.03-.42l.02-.43c0-.11-.15-.17-.25-.02l-.2.32c-1.58,1.99-5.25,5.23-6.76,5.21-.12,0-.21-.36-.05-.5,2.49-2.02,4.62-4.44,5.88-7.62l-5.27-.03c-.3,0-.41-.6-.27-.71l6.9.09v-4.05c1.03-.04,1.85.13,2.81.38-.05.44-.4.65-.54.86l-.07,2.63,3.61.21,1.59-1.28c.87.48,1.76.77,2.3,1.78l-7.08.11c.99,2.64,4.52,5.15,7.03,6.1.07.03.14.23.12.49-.8.1-1.36.69-1.75,1.46-2.99-1.5-4.59-4.27-5.79-7.2l-.07,9.27c-.34.52-1.51.46-2.01.26Z"/>
        <path class="cls-1" d="M47.33,9.37c-.44.02-.54-.36-.79-.65-2.64-2.99-4.84-3.64-9.05-3.69l-3.15-2.58c-3.44-1.93-7.43-2.25-11.19-1.15l-2.77,1.28c-1.15.53-1.88,1.62-2.68,2.31l-4.68.46c.51-1.53,4.08-.56,4.76-1.42,4.31-5.42,15.11-4.95,18.76-.42.62.77.89.9,1.9.92,1.44.03,2.92.49,4.32.88,2.13.6,3.75,2.15,4.57,4.05Z"/>
        <path class="cls-1" d="M12.45,5.22l-2.76,1.86c-.5.31-.76.93-1.29,1.13,0-.71.42-1.02,1.03-1.45.93-.64,1.97-1.5,3.02-1.54Z"/>
        <path class="cls-1" d="M26.14,55.6c-.31-.5-.32-1.18.02-1.48l-.02,1.48Z"/>
        <path class="cls-1" d="M26.12,53.18c-.01-.35-.29-.64-.01-1.04v1.04Z"/>
        <path class="cls-1" d="M5.54,12.76c.01.23-.28.3-.48.28.05-.05,0-.29.04-.38.03-.07.08-.17.23-.11.08.03.16.17.2.21Z"/>
        <path class="cls-1" d="M26.3,58.1c-.24.18-.43-.12-.16-.21l.16.21Z"/>
        <path class="cls-1" d="M26.14,51.5c-.02-.15-.04-.23,0-.32v.32Z"/>
        <g>
          <path class="cls-3" d="M47.33,9.37c-.06.09-.06.23-.04.29l.63,2.69c1.45.77,2.86,1.4,4.07,2.45.38.33.66.73,1.15.79,1.73,2.39,2.31,5.3.73,8.07-2.55,4.45-8.34,5.38-13.29,4.04l-5.97-1.62c-.58-.16-1.12-.3-1.89.03l.36-1.25c-.91.57-2.1,1.17-2.57,2.33-1.05,2.61-.58,6.11,1.25,8.26,1.23.8,2.93.54,4.26.63l4.72.33c1.14.08,2.22.22,3.13.89.66.49.81,1.14.74,1.9-.06.65-1.03.89-1.49,1.24-.35,1.05.11,2.31.17,3.38.28,4.89,1.2,9.55,2.51,14.23l-3.2-.02c-2.29-5.6-3.72-11.34-4.45-17.3l-12.9-.16-8.67.26c-.48,5.91-2.24,11.88-4.57,17.23l-3.23-.06c2.35-7.27,3.92-17.92,2.87-24.99-.09-.59-.18-1.07-.21-1.75-.22-4.89-1.56-9.52-3.29-14.07-.26-.68-.22-1.32.2-1.77s1.1-.6,1.75-.48c1.07.21,1.26,1.16,1.64,2.05,2.69,6.25,4.48,12.68,5.1,19.56l5.47-.81c1.64-.24,3.71-6.91,1.67-11.13-.59-1.23-2.54-1.14-3.39-1.89-1.13-1.35-1.98-3.03-3.83-3.29l-.08.21c.79.51,1.82,1.71,1.85,2.86l-3.18-.26c-.91-2.49-1.59-4.95-2.93-7.23-.86-1.47-3.18-1.66-4.59-.95s-1.56,2.2-1.06,3.52c1.3,3.42,2.36,6.8,2.85,10.56-2.94-.04-5.92-1.15-7.85-3.35-2.11-2.4-2.22-5.52-.75-8.19,1.75-3.16,3.4-2.84,4.07-3.57.2.02.49-.05.48-.28l.7-.21c.7-.21.95-.79.98-1.49v-.46c.34-.31.42-.78.49-1.25.34-.21.68-.77.69-1.16.53-.2.79-.83,1.29-1.13l2.76-1.86c.13.1.45.16.58.15l4.68-.46c.8-.69,1.53-1.78,2.68-2.31l2.77-1.28c3.77-1.1,7.75-.78,11.19,1.15l3.15,2.58c4.2.06,6.4.7,9.05,3.69.26.29.36.66.79.65ZM26.22,4.41l-.44.37.63.74.44-.37-.63-.74ZM40.83,14.2l-.25.02-.83.12c-.25.05-.38-.28-.34-.44s.45-.29.56-.48c.29-.48-.21-.57-.42-.38l-.46.41c-1.36.22-1.99,1.5-2.69,1.31-.47-.13-1.09-1.96-.66-3.48-1.69,1.28-.28,4.23-.67,5.33-.4,1.15-1.14,2.25-1.81,3.26-.83,1.24-2.98,2.23-4.65,2.98-2.08-2.27-2.4-5.87-.47-8.34l3.5-2.99,1.44-2.18c.47-.71.89-1.53.76-2.57-.87.6-.97,1.71-1.51,2.37-.9,1.1-2.04,2.05-3.64,2.66-.14-2.37-.25-5.78-2.08-6.27l.54,3.42c.09,2.67-.92,5.12-2.3,7.34l-3.12-2.53c.39-1.75.81-3.62-.45-4.95-.12,1.55-.07,2.9-1.07,4.01-1.64-1.29-2.72-2.8-3.84-4.53-.85,1.1.94,3.49,2.19,4.94-1.59.21-2.86-.17-4.43-.42,1.5,1.45,3.4,1.42,5.38,1.76,1.27.48,2.63,1.93,3.52,3.01,1.51,1.82,2.38,8.47,6.61,6.81,3.22-1.27,8.27-2.83,11.07-1.78,1.92.73,3.57,2.49,5.95,2.08-1.56-.53-3.15-1.01-4.03-2.47,1.94-.33,3.7-.42,5.04-1.8-2.36.42-4.33.8-6.78.59.71-1.68,2.02-2.7,3.47-3.37-2.29.17-3.91,1.57-5.16,3.17l-4,.07,1.21-2.69c.41-.92.95-2.52,2.03-2.71l3.26-.61c.58-.11.99-.52,1.29-1.11l-2.15.47ZM16.17,19.34c.53.46.3-.3.44-.03l-.44.03Z"/>
          <path class="cls-3" d="M22.25,25.89c-1.98.43-3.57.68-5.33,1.25-.49-1.15-.9-2.11-1.03-3.42,2.22.19,4.39.64,6.36,2.17Z"/>
          <path class="cls-1" d="M53.13,15.6c-.49-.06-.77-.46-1.15-.79-1.21-1.05-2.62-1.68-4.07-2.45l-.63-2.69c.94-.03.54,1.17,1.04,2.3,2,1.02,3.56,1.91,4.8,3.63Z"/>
          <path class="cls-1" d="M7.22,11.07c-.02.7-.27,1.28-.98,1.49l.47-1.02c.15-.3.25-.49.5-.47Z"/>
          <path class="cls-1" d="M7.71,9.36c-.07.47-.15.94-.48,1.25-.26-.21-.16-.48-.11-.68.1-.41.35-.43.59-.57Z"/>
          <path class="cls-1" d="M26.16,50.76l-.43-.13.2-.32c.09-.15.25-.1.25.02l-.02.43Z"/>
          <path class="cls-2" d="M32.32,9.12l.75.19-1.44,2.18-3.5,2.99c-1.93,2.47-1.62,6.07.47,8.34,1.68-.75,3.82-1.73,4.65-2.98.67-1.01,1.41-2.1,1.81-3.26s-1.03-4.05.67-5.33c-.43,1.53.19,3.35.66,3.48.7.2,1.33-1.09,2.69-1.31-.01.22-.05.51.08.81.07.16.31.12.57.08l.83-.12c0,.29.3.24.25-.02l2.15-.47c-.3.59-.71,1-1.29,1.11l-3.26.61c-1.07.2-1.61,1.79-2.03,2.71l-1.21,2.69,4-.07c1.25-1.6,2.87-3,5.16-3.17-1.46.66-2.76,1.69-3.47,3.37,2.45.21,4.43-.17,6.78-.59-1.35,1.38-3.1,1.47-5.04,1.8.88,1.46,2.47,1.94,4.03,2.47-2.37.41-4.03-1.35-5.95-2.08-2.8-1.06-7.85.51-11.07,1.78-4.22,1.66-5.1-4.99-6.61-6.81-.89-1.08-2.25-2.53-3.52-3.01-1.98-.35-3.89-.32-5.38-1.76,1.57.25,2.84.63,4.43.42-1.25-1.44-3.04-3.84-2.19-4.94,1.12,1.74,2.2,3.25,3.84,4.53,1-1.11.95-2.46,1.07-4.01,1.27,1.33.84,3.19.45,4.95l3.12,2.53c1.38-2.22,2.39-4.67,2.3-7.34l-.54-3.42c1.84.49,1.94,3.9,2.08,6.27,1.6-.61,2.74-1.56,3.64-2.66Z"/>
          <path class="cls-1" d="M33.08,9.31l-.75-.19c.54-.66.64-1.77,1.51-2.37.13,1.04-.28,1.85-.76,2.57Z"/>
          <path class="cls-1" d="M39.75,14.34c-.26.04-.5.08-.57-.08-.13-.3-.1-.59-.08-.81l.46-.41c.21-.19.72-.1.42.38-.12.19-.51.31-.56.48s.09.49.34.44Z"/>
          <rect class="cls-2" x="26.02" y="4.49" width=".58" height=".97" transform="translate(3.01 18.17) rotate(-40.24)"/>
          <path class="cls-1" d="M40.58,14.22l.25-.02c.05.26-.26.31-.25.02Z"/>
        </g>
      </g>
    </g>
  </g>
</svg>